<svg id="Layer_1" data-name="Layer 1" xmlns="http://www.w3.org/2000/svg" viewBox="0 0 606.48 288.79"><defs><style>.cls-1{fill:#fff;}.cls-2{fill:#231f20;}</style></defs><polygon class="cls-1" points="606.1 0 602.63 0 5.32 0 1.85 0 1.85 3.09 1.85 285.49 1.85 288.57 5.32 288.57 606.48 288.57 606.48 0 606.1 0"/><polygon class="cls-1" points="604.25 0.22 600.78 0.22 3.47 0.22 0 0.22 0 3.32 0 285.71 0 288.79 3.47 288.79 604.63 288.79 604.63 0.22 604.25 0.22"/><path class="cls-2" d="M601.14,2.73V285.12H3.84V2.73h597.3" transform="translate(1.48 0.36)"/><rect class="cls-1" x="14.04" y="13.13" width="166.65" height="46.82"/><rect class="cls-1" x="13.97" y="70.17" width="166.74" height="172.14"/><polygon class="cls-1" points="14 275.3 14 252.44 47.48 252.44 47.48 257.79 27.45 257.79 27.45 261.06 44.4 261.06 44.4 266.39 27.45 266.39 27.45 269.97 48.25 269.97 48.25 275.3 14 275.3"/><path class="cls-1" d="M75.21,258.74a2.51,2.51,0,0,0-1.94-1.55,12.21,12.21,0,0,0-3.47-.42c-3,0-4.28.48-4.28,1.34,0,3.38,23.6,1.25,23.6,9.56,0,5.3-7.93,7.88-19.21,7.88-10.83,0-17.89-3.52-18.18-7.65H64.61a3.29,3.29,0,0,0,2.23,1.8,12.12,12.12,0,0,0,3.83.58c3.36,0,5.59-.6,5.59-1.68,0-3.46-23.62-1.09-23.62-9.8,0-4.86,7.53-7.29,17.8-7.29,11.39,0,16.58,3.23,17.57,7.23Z" transform="translate(1.48 0.36)"/><path class="cls-1" d="M109.26,262h5.29c4.16,0,6.4-.6,6.4-2.18s-2.28-2.38-5.42-2.38h-6.27Zm0,5v8H95.81V252.08H115.2c13.66,0,18.17,2.09,18.17,6.53,0,2.65-2.1,4.84-6.89,5.61,4.33.87,7,1.41,7,6,0,3-.17,4,1.43,4v.69H121.22a8.84,8.84,0,0,1-.67-4c0-3-.92-4-7.18-4Z" transform="translate(1.48 0.36)"/><path class="cls-1" d="M155.08,257.43v3.83h5.6c2.68,0,4.63-.69,4.63-2,0-1.79-2.65-1.82-5.48-1.82Zm0,8v4.22H161c3.33,0,5.83-.4,5.83-2.1,0-2-3.13-2.12-7.42-2.12Zm-13.44,9.55V252.08h19.62c9.24,0,16.59,1.24,16.59,5.76,0,2.37-2.75,4.08-5.36,5,4.44.64,6.82,2.78,6.82,5.24,0,5.09-7,6.89-17.67,6.89Z" transform="translate(1.48 0.36)"/><polyline class="cls-2" points="26.43 109.95 127.34 79.81 137.46 111.77 86.91 126.86 91.05 139.94 137.75 126 147.84 157.97 101.17 171.89 105.53 185.67 157.73 170.06 167.85 202.01 65.3 232.65 26.43 109.95"/><path class="cls-2" d="M17.19,49.44V22.92H31.5V27H22.67v6.54h8.14v4.07H22.67v7.75h9.11v4.08Z" transform="translate(1.48 0.36)"/><path class="cls-2" d="M33.23,22.92h5.71L43,42.2h.07l4.58-19.28h5.41L46.12,49.44H39.7Z" transform="translate(1.48 0.36)"/><path class="cls-2" d="M55.53,49.44V22.92h14.3V27H61v6.54h8.13v4.07H61v7.75h9.11v4.08Z" transform="translate(1.48 0.36)"/><path class="cls-2" d="M79.05,49.44H73.57V22.92H83.7a5.9,5.9,0,0,1,4.49,1.76,7.38,7.38,0,0,1,1.64,5.18,7.93,7.93,0,0,1-1.11,4.3A5.14,5.14,0,0,1,85,36.36v.08l1.23.22a4.37,4.37,0,0,1,1.58.66,4.42,4.42,0,0,1,1.36,1.52,5.68,5.68,0,0,1,.58,2.81c0,.42,0,1,0,1.77s0,1.53.09,2.34S90,47.32,90,48a5.57,5.57,0,0,0,.31,1.43H85a6.22,6.22,0,0,1-.56-2.54c0-.87,0-1.75,0-2.61s0-1.53,0-2.23A4.64,4.64,0,0,0,84,40.2a2.69,2.69,0,0,0-1.15-1.26,4.79,4.79,0,0,0-2.38-.48H79.05Zm0-15.06h2.43A2.43,2.43,0,0,0,82.83,34a2.79,2.79,0,0,0,.87-.94,4,4,0,0,0,.45-1.27,6.89,6.89,0,0,0,.12-1.32,3.89,3.89,0,0,0-.74-2.7,2.7,2.7,0,0,0-2-.79H79.05Z" transform="translate(1.48 0.36)"/><path class="cls-2" d="M98.15,40.26,91.28,22.92h6l3.92,11.2,4.18-11.2H111l-7.32,17.34v9.18H98.15Z" transform="translate(1.48 0.36)"/><path class="cls-2" d="M122.29,49.88a9.91,9.91,0,0,1-5.23-1.16,6.85,6.85,0,0,1-2.7-3.09,13.29,13.29,0,0,1-1-4.38c-.09-1.64-.15-3.33-.15-5.07s.06-3.46.15-5.11a13.17,13.17,0,0,1,1-4.36,6.85,6.85,0,0,1,2.7-3.07,12.37,12.37,0,0,1,10.46,0,6.75,6.75,0,0,1,2.68,3.07,12.93,12.93,0,0,1,1,4.36c.1,1.65.15,3.34.15,5.11s-.05,3.43-.15,5.07a13,13,0,0,1-1,4.38,6.74,6.74,0,0,1-2.68,3.09A9.94,9.94,0,0,1,122.29,49.88Zm0-4a2.82,2.82,0,0,0,1.85-.57,3.69,3.69,0,0,0,1-1.74,13.13,13.13,0,0,0,.47-3c.08-1.24.12-2.7.12-4.39s0-3.15-.12-4.39a13.13,13.13,0,0,0-.47-3,3.69,3.69,0,0,0-1-1.74,2.82,2.82,0,0,0-1.85-.57,2.85,2.85,0,0,0-1.86.57,3.45,3.45,0,0,0-1,1.74,13.07,13.07,0,0,0-.48,3c-.07,1.24-.11,2.7-.11,4.39s0,3.15.11,4.39a13.07,13.07,0,0,0,.48,3,3.45,3.45,0,0,0,1,1.74A2.85,2.85,0,0,0,122.29,45.91Z" transform="translate(1.48 0.36)"/><path class="cls-2" d="M135.72,49.44V22.92h7.41l7,18.36h.07V22.92h5.13V49.44h-7.23L140.91,30h-.08v19.4Z" transform="translate(1.48 0.36)"/><path class="cls-2" d="M159.89,49.44V22.92H174.2V27h-8.82v6.54h8.12v4.07h-8.12v7.75h9.1v4.08Z" transform="translate(1.48 0.36)"/><rect class="cls-1" x="190.84" y="13.07" width="401.86" height="262.28"/><path class="cls-2" d="M204.36,85.15l9.53-28h3.5l10.12,28h-3.74l-2.88-8.47h-10.4l-2.69,8.47Zm7.09-11.48h8.42l-2.57-7.75c-.79-2.38-1.38-4.31-1.75-5.8a39.4,39.4,0,0,1-1.35,5.34Z" transform="translate(1.48 0.36)"/><path class="cls-2" d="M229.57,85.15v-28h3v28Z" transform="translate(1.48 0.36)"/><path class="cls-2" d="M249.06,77.73l3,.44a8.91,8.91,0,0,1-2.58,5.53,7,7,0,0,1-5,1.91,7.23,7.23,0,0,1-5.78-2.68q-2.28-2.69-2.28-7.93t2.3-7.93a7.45,7.45,0,0,1,5.89-2.64A7,7,0,0,1,249.29,66a7.61,7.61,0,0,1,2.44,4.8l-2.94.5a5.73,5.73,0,0,0-1.5-3.07,3.62,3.62,0,0,0-2.57-1A4.55,4.55,0,0,0,241,69.1q-1.47,1.84-1.47,5.85c0,2.76.47,4.75,1.41,6a4.35,4.35,0,0,0,3.61,1.85,4,4,0,0,0,2.95-1.23A6.5,6.5,0,0,0,249.06,77.73Z" transform="translate(1.48 0.36)"/><path class="cls-2" d="M253.46,75c0-3.49.79-6.14,2.37-7.92a8.08,8.08,0,0,1,12,0q2.42,2.67,2.41,7.71,0,5.46-2.37,8.13a8.08,8.08,0,0,1-12,0C254.26,81.14,253.46,78.51,253.46,75Zm3.1,0q0,3.94,1.55,5.86a4.72,4.72,0,0,0,3.82,1.92,4.55,4.55,0,0,0,3.67-1.94q1.53-1.93,1.53-5.84t-1.54-5.83a4.72,4.72,0,0,0-3.82-1.92,4.53,4.53,0,0,0-3.68,1.93Q256.56,71.11,256.56,75Z" transform="translate(1.48 0.36)"/><path class="cls-2" d="M273.82,85.15v-28h3v10a7.18,7.18,0,0,1,2.42-2.09,6.38,6.38,0,0,1,3-.7,6,6,0,0,1,4.51,1.69c1.1,1.13,1.66,3.19,1.66,6.19V85.15h-3V72.31a5.67,5.67,0,0,0-1-3.77,3.51,3.51,0,0,0-2.78-1.15,4.44,4.44,0,0,0-3.36,1.47c-.93,1-1.39,2.71-1.39,5.21V85.15Z" transform="translate(1.48 0.36)"/><path class="cls-2" d="M291.87,75c0-3.49.79-6.14,2.37-7.92a8.08,8.08,0,0,1,12,0q2.42,2.67,2.41,7.71,0,5.46-2.36,8.13a8.09,8.09,0,0,1-12,0C292.67,81.14,291.87,78.51,291.87,75ZM295,75q0,3.94,1.54,5.86a4.72,4.72,0,0,0,3.82,1.92A4.55,4.55,0,0,0,304,80.85c1-1.29,1.54-3.24,1.54-5.84S305,70.46,304,69.18a4.72,4.72,0,0,0-3.82-1.92,4.53,4.53,0,0,0-3.68,1.93C295.48,70.47,295,72.41,295,75Z" transform="translate(1.48 0.36)"/><path class="cls-2" d="M312.13,85.15v-28h3v28Z" transform="translate(1.48 0.36)"/><path class="cls-2" d="M329.91,85.15v-28h11a12.21,12.21,0,0,1,5.07.79,6.09,6.09,0,0,1,2.68,2.6,8.28,8.28,0,0,1,1.05,4.22,7.37,7.37,0,0,1-1.77,5.13,8.56,8.56,0,0,1-5.18,2.5,8.4,8.4,0,0,1,2.1,1.55,19.79,19.79,0,0,1,2.57,3.57l4.32,7.61H347.6l-3.3-5.81a36.16,36.16,0,0,0-2.89-4.6,5.63,5.63,0,0,0-1.89-1.6,6.47,6.47,0,0,0-2.56-.41h-3.78V85.15Zm3.27-15.62h7a9.07,9.07,0,0,0,3.5-.52,4.08,4.08,0,0,0,1.89-1.62,4.71,4.71,0,0,0,.7-2.58A4.24,4.24,0,0,0,345,61.49a5.71,5.71,0,0,0-4-1.22h-7.82Z" transform="translate(1.48 0.36)"/><path class="cls-2" d="M366.66,78.63l3.12.44A8.6,8.6,0,0,1,367,84a8.49,8.49,0,0,1-11.22-1c-1.57-1.79-2.36-4.36-2.36-7.74s.79-6.16,2.38-8a7.59,7.59,0,0,1,6-2.76,7.35,7.35,0,0,1,5.8,2.71q2.32,2.72,2.33,7.84l0,.92H356.5a8.27,8.27,0,0,0,1.71,5.15,4.72,4.72,0,0,0,3.7,1.74C364.18,82.79,365.77,81.4,366.66,78.63Zm-10-5.55h10a7.25,7.25,0,0,0-1.22-3.93,4.61,4.61,0,0,0-7.19-.32A6.64,6.64,0,0,0,356.68,73.08Z" transform="translate(1.48 0.36)"/><path class="cls-2" d="M374.47,85.15V67.56h-2.69V64.89h2.69V62.74a9.07,9.07,0,0,1,.54-3.58,3.78,3.78,0,0,1,1.64-1.82,5.49,5.49,0,0,1,2.77-.63,12.61,12.61,0,0,1,2.84.36l-.45,3a9.66,9.66,0,0,0-1.79-.19,2.48,2.48,0,0,0-1.94.66,3.91,3.91,0,0,0-.59,2.51v1.87H381v2.67h-3.5V85.15Z" transform="translate(1.48 0.36)"/><path class="cls-2" d="M395.47,78.63l3.12.44A8.65,8.65,0,0,1,395.77,84a8.5,8.5,0,0,1-11.23-1c-1.57-1.79-2.36-4.36-2.36-7.74s.8-6.16,2.38-8a7.59,7.59,0,0,1,6-2.76,7.35,7.35,0,0,1,5.8,2.71q2.33,2.72,2.32,7.84l0,.92H385.31a8.33,8.33,0,0,0,1.7,5.15,4.76,4.76,0,0,0,3.71,1.74C393,82.79,394.58,81.4,395.47,78.63Zm-10-5.55h10a7.25,7.25,0,0,0-1.22-3.93,4.61,4.61,0,0,0-7.19-.32A6.64,6.64,0,0,0,385.49,73.08Z" transform="translate(1.48 0.36)"/><path class="cls-2" d="M402.44,85.15V64.89h2.73V68a8.64,8.64,0,0,1,1.92-2.83,3.12,3.12,0,0,1,2-.7,5.4,5.4,0,0,1,3.1,1.11l-1,3.19a4,4,0,0,0-2.2-.75,2.77,2.77,0,0,0-1.76.63A3.41,3.41,0,0,0,406,70.37a14.92,14.92,0,0,0-.57,4.18v10.6Z" transform="translate(1.48 0.36)"/><path class="cls-2" d="M426.17,78.63l3.12.44A8.6,8.6,0,0,1,426.46,84a8.5,8.5,0,0,1-11.23-1c-1.56-1.79-2.35-4.36-2.35-7.74s.79-6.16,2.38-8a7.59,7.59,0,0,1,6-2.76,7.35,7.35,0,0,1,5.8,2.71q2.32,2.72,2.32,7.84l0,.92H416a8.33,8.33,0,0,0,1.7,5.15,4.76,4.76,0,0,0,3.71,1.74C423.69,82.79,425.28,81.4,426.17,78.63Zm-10-5.55h10A7.25,7.25,0,0,0,425,69.15a4.61,4.61,0,0,0-7.19-.32A6.64,6.64,0,0,0,416.19,73.08Z" transform="translate(1.48 0.36)"/><path class="cls-2" d="M433.14,85.15V64.89h2.73v2.86a6.8,6.8,0,0,1,2.41-2.49,6.42,6.42,0,0,1,3.28-.83,6.6,6.6,0,0,1,2.65.53,5,5,0,0,1,3.09,3.58,16.89,16.89,0,0,1,.37,4.15V85.15h-3V72.81a9.6,9.6,0,0,0-.41-3.26A3.26,3.26,0,0,0,443,68a3.67,3.67,0,0,0-2-.56,4.39,4.39,0,0,0-3.48,1.51c-.86,1-1.29,2.73-1.29,5.18V85.15Z" transform="translate(1.48 0.36)"/><path class="cls-2" d="M464.06,77.73l3,.44a8.91,8.91,0,0,1-2.58,5.53,7,7,0,0,1-5,1.91,7.23,7.23,0,0,1-5.79-2.68q-2.26-2.69-2.27-7.93t2.29-7.93a7.45,7.45,0,0,1,5.89-2.64A7,7,0,0,1,464.3,66a7.66,7.66,0,0,1,2.44,4.8l-2.94.5a5.73,5.73,0,0,0-1.51-3.07,3.6,3.6,0,0,0-2.57-1A4.55,4.55,0,0,0,456,69.1q-1.47,1.84-1.47,5.85c0,2.76.47,4.75,1.41,6a4.35,4.35,0,0,0,3.61,1.85,4,4,0,0,0,2.95-1.23A6.43,6.43,0,0,0,464.06,77.73Z" transform="translate(1.48 0.36)"/><path class="cls-2" d="M481.85,78.63l3.12.44A8.65,8.65,0,0,1,482.15,84a8.5,8.5,0,0,1-11.23-1c-1.57-1.79-2.35-4.36-2.35-7.74s.79-6.16,2.37-8a7.59,7.59,0,0,1,6-2.76,7.33,7.33,0,0,1,5.79,2.71q2.33,2.72,2.33,7.84l0,.92H471.69a8.27,8.27,0,0,0,1.71,5.15,4.72,4.72,0,0,0,3.7,1.74Q480.52,82.79,481.85,78.63Zm-10-5.55h10a7.34,7.34,0,0,0-1.21-3.93,4.62,4.62,0,0,0-7.2-.32A6.58,6.58,0,0,0,471.88,73.08Z" transform="translate(1.48 0.36)"/><path class="cls-2" d="M204.36,157.48v-28h4.91l5.87,19.8,1.18,4.14c.28-1,.72-2.52,1.31-4.48l5.93-19.46H228v28h-3.14v-23.4l-7.21,23.4h-2.94l-7.17-23.8v23.8Z" transform="translate(1.48 0.36)"/><path class="cls-2" d="M232.79,133.46v-4h3v4Zm0,24V137.22h3v20.26Z" transform="translate(1.48 0.36)"/><path class="cls-2" d="M240.36,157.48v-28h3v28Z" transform="translate(1.48 0.36)"/><path class="cls-2" d="M259.73,157.48v-2.56a5.91,5.91,0,0,1-2.12,2.25,5.38,5.38,0,0,1-2.79.77,6.93,6.93,0,0,1-5.48-2.78q-2.33-2.78-2.32-7.81a14.78,14.78,0,0,1,1-5.86,8,8,0,0,1,2.74-3.57,6.66,6.66,0,0,1,3.81-1.16,5.5,5.5,0,0,1,2.78.73,6.22,6.22,0,0,1,2.13,2v-10h3.06v28Zm-9.6-10.11q0,3.93,1.47,5.83a4.24,4.24,0,0,0,3.43,1.91,4.16,4.16,0,0,0,3.35-1.83,8.94,8.94,0,0,0,1.42-5.53q0-4.26-1.42-6.21a4.27,4.27,0,0,0-3.58-2,4,4,0,0,0-3.29,1.88Q250.13,143.34,250.13,147.37Z" transform="translate(1.48 0.36)"/><path class="cls-2" d="M277.6,157.48v-28h16.68v3.3H280.87v8.66h11.6v3.3h-11.6v12.71Z" transform="translate(1.48 0.36)"/><path class="cls-2" d="M309.7,155a11,11,0,0,1-3.17,2.21,8.1,8.1,0,0,1-3.41.75,6.21,6.21,0,0,1-4.46-1.57,5.51,5.51,0,0,1-1.67-4.21,6.11,6.11,0,0,1,.78-3.11,5.59,5.59,0,0,1,2.14-2.12A11.86,11.86,0,0,1,304,145.8a23.83,23.83,0,0,0,5.43-1.2l0-.88a4.16,4.16,0,0,0-.8-2.92,4.52,4.52,0,0,0-3.47-1.22,5.07,5.07,0,0,0-3.17.82,5.16,5.16,0,0,0-1.54,3.06l-3-.46a7.46,7.46,0,0,1,2.58-4.75,8.93,8.93,0,0,1,5.56-1.49,8.52,8.52,0,0,1,4.42,1,4.36,4.36,0,0,1,2,2.43,16.21,16.21,0,0,1,.42,4.24V149a54.68,54.68,0,0,0,.19,6,8.66,8.66,0,0,0,.77,2.44h-3.16A8,8,0,0,1,309.7,155Zm-.25-7.67a20.45,20.45,0,0,1-4.95,1.3,9.86,9.86,0,0,0-2.68.69,2.87,2.87,0,0,0-1.18,1.11,3.21,3.21,0,0,0-.42,1.65,3,3,0,0,0,1,2.32,3.83,3.83,0,0,0,2.67.87,5.71,5.71,0,0,0,2.95-.79,4.86,4.86,0,0,0,2-2.09,8.67,8.67,0,0,0,.66-3.8Z" transform="translate(1.48 0.36)"/><path class="cls-2" d="M317.25,157.48V137.22H320v2.86a6.83,6.83,0,0,1,2.41-2.5,6.42,6.42,0,0,1,3.28-.82,6.63,6.63,0,0,1,2.65.52,5,5,0,0,1,3.09,3.58,16.93,16.93,0,0,1,.37,4.16v12.46h-3V145.14a9.63,9.63,0,0,0-.41-3.27,3.31,3.31,0,0,0-1.28-1.59,3.64,3.64,0,0,0-2-.56,4.35,4.35,0,0,0-3.48,1.51c-.86,1-1.29,2.73-1.29,5.17v11.08Z" transform="translate(1.48 0.36)"/><path class="cls-2" d="M343.2,154.41l.41,3a9.39,9.39,0,0,1-2.27.31,5,5,0,0,1-2.54-.58,3,3,0,0,1-1.33-1.6,14.37,14.37,0,0,1-.36-4V139.89h-2.22v-2.67h2.22v-5l3-2.06v7.08h3.07v2.67h-3.07v11.85a5.15,5.15,0,0,0,.27,2.11,1.52,1.52,0,0,0,1.46.69A8.6,8.6,0,0,0,343.2,154.41Z" transform="translate(1.48 0.36)"/><path class="cls-2" d="M357.71,155a11.14,11.14,0,0,1-3.16,2.21,8.18,8.18,0,0,1-3.42.75,6.23,6.23,0,0,1-4.46-1.57,5.51,5.51,0,0,1-1.67-4.21,6.12,6.12,0,0,1,.79-3.11,5.56,5.56,0,0,1,2.13-2.12A11.86,11.86,0,0,1,352,145.8a24.1,24.1,0,0,0,5.43-1.2l0-.88a4.16,4.16,0,0,0-.81-2.92,4.52,4.52,0,0,0-3.47-1.22,5.09,5.09,0,0,0-3.17.82,5.16,5.16,0,0,0-1.54,3.06l-3-.46a7.51,7.51,0,0,1,2.58-4.75,9,9,0,0,1,5.56-1.49,8.49,8.49,0,0,1,4.42,1,4.32,4.32,0,0,1,2,2.43,16.21,16.21,0,0,1,.42,4.24V149a54.68,54.68,0,0,0,.19,6,8.68,8.68,0,0,0,.78,2.44h-3.17A8.25,8.25,0,0,1,357.71,155Zm-.24-7.67a20.55,20.55,0,0,1-5,1.3,9.87,9.87,0,0,0-2.67.69,2.81,2.81,0,0,0-1.18,1.11,3.12,3.12,0,0,0-.43,1.65,3,3,0,0,0,1,2.32,3.85,3.85,0,0,0,2.67.87,5.69,5.69,0,0,0,2.95-.79,4.94,4.94,0,0,0,2-2.09,8.67,8.67,0,0,0,.66-3.8Z" transform="translate(1.48 0.36)"/><path class="cls-2" d="M364.09,151.41l3-.53a4.86,4.86,0,0,0,1.46,3.19,4.62,4.62,0,0,0,3.15,1,4.57,4.57,0,0,0,3-.91,2.85,2.85,0,0,0,1.08-2.29,2.17,2.17,0,0,0-.93-1.87,11.87,11.87,0,0,0-3.08-1.15,23.42,23.42,0,0,1-4.73-1.71,5.08,5.08,0,0,1-1.85-1.89,5.85,5.85,0,0,1,1.13-6.91,7.11,7.11,0,0,1,5-1.62,8.5,8.5,0,0,1,3.5.67,5.37,5.37,0,0,1,2.31,1.79,7.43,7.43,0,0,1,1.12,3.22l-3,.46q-.4-3.32-3.88-3.32a4.82,4.82,0,0,0-2.94.73,2.24,2.24,0,0,0-1,1.87,2,2,0,0,0,.93,1.77,17.38,17.38,0,0,0,3.29,1.22,25.9,25.9,0,0,1,4.88,1.77,4.62,4.62,0,0,1,1.72,1.79,5.62,5.62,0,0,1,.61,2.71,6.06,6.06,0,0,1-2,4.7,7.76,7.76,0,0,1-5.42,1.8Q365.12,157.94,364.09,151.41Z" transform="translate(1.48 0.36)"/><path class="cls-2" d="M382.43,165.28l-.33-3.22a6.22,6.22,0,0,0,1.73.3,3.17,3.17,0,0,0,1.59-.36,2.76,2.76,0,0,0,1-1.12c.1-.19.5-1.3,1.2-3.37l-6.81-20.29h3.27l3.74,11.72c.46,1.47.9,3,1.29,4.7.35-1.58.76-3.12,1.24-4.62l3.82-11.8h3l-6.79,20.6a34.85,34.85,0,0,1-2.11,5.35,5.24,5.24,0,0,1-1.75,1.94,4.13,4.13,0,0,1-2.21.59A5.54,5.54,0,0,1,382.43,165.28Z" transform="translate(1.48 0.36)"/><path class="cls-2" d="M416.93,157.48l-9.6-28h3.54l6.44,20.32c.5,1.58.93,3.1,1.3,4.58.38-1.54.82-3.07,1.32-4.58l6.69-20.32H430l-9.66,28Z" transform="translate(1.48 0.36)"/><path class="cls-2" d="M431.84,133.46v-4h3v4Zm0,24V137.22h3v20.26Z" transform="translate(1.48 0.36)"/><path class="cls-2" d="M438.36,147.35q0-5.25,2.38-7.92a8.07,8.07,0,0,1,12,0q2.41,2.67,2.41,7.71,0,5.46-2.37,8.13a8.09,8.09,0,0,1-12,0Q438.37,152.57,438.36,147.35Zm3.1,0q0,3.93,1.55,5.85a4.71,4.71,0,0,0,3.82,1.92,4.54,4.54,0,0,0,3.67-1.93c1-1.3,1.53-3.24,1.53-5.84s-.51-4.56-1.54-5.84a4.72,4.72,0,0,0-3.82-1.92,4.56,4.56,0,0,0-3.68,1.93Q441.46,143.45,441.46,147.34Z" transform="translate(1.48 0.36)"/><path class="cls-2" d="M458.61,157.48v-28h3v28Z" transform="translate(1.48 0.36)"/><path class="cls-2" d="M478.62,151l3.13.44a8.69,8.69,0,0,1-2.83,4.9,8.5,8.5,0,0,1-11.23-1q-2.35-2.69-2.35-7.74,0-5.25,2.37-8a7.61,7.61,0,0,1,6-2.75,7.33,7.33,0,0,1,5.8,2.71c1.54,1.8,2.32,4.42,2.32,7.84l0,.92H468.46a8.42,8.42,0,0,0,1.71,5.15,4.76,4.76,0,0,0,3.7,1.73C476.15,155.11,477.73,153.73,478.62,151Zm-10-5.55h10a7.37,7.37,0,0,0-1.21-3.93,4.51,4.51,0,0,0-3.72-1.89,4.58,4.58,0,0,0-3.48,1.57A6.6,6.6,0,0,0,468.65,145.4Z" transform="translate(1.48 0.36)"/><path class="cls-2" d="M485.59,157.48V137.22h2.74v2.86a6.75,6.75,0,0,1,2.41-2.5,6.4,6.4,0,0,1,3.27-.82,6.64,6.64,0,0,1,2.66.52,5.36,5.36,0,0,1,2,1.38,5.44,5.44,0,0,1,1.12,2.2,16.93,16.93,0,0,1,.37,4.16v12.46h-3V145.14a9.63,9.63,0,0,0-.41-3.27,3.39,3.39,0,0,0-1.29-1.59,3.62,3.62,0,0,0-2-.56,4.32,4.32,0,0,0-3.47,1.51c-.86,1-1.3,2.73-1.3,5.17v11.08Z" transform="translate(1.48 0.36)"/><path class="cls-2" d="M516.52,150.06l3,.44a8.94,8.94,0,0,1-2.58,5.53,7.08,7.08,0,0,1-5,1.91,7.26,7.26,0,0,1-5.78-2.68q-2.28-2.69-2.28-7.93c0-3.53.77-6.17,2.29-7.93a7.47,7.47,0,0,1,5.9-2.64,7,7,0,0,1,4.67,1.6,7.64,7.64,0,0,1,2.44,4.81l-2.94.5a5.76,5.76,0,0,0-1.5-3.07,3.59,3.59,0,0,0-2.57-1,4.57,4.57,0,0,0-3.71,1.84q-1.47,1.85-1.47,5.85t1.4,6a4.34,4.34,0,0,0,3.61,1.85,4,4,0,0,0,3-1.23A6.46,6.46,0,0,0,516.52,150.06Z" transform="translate(1.48 0.36)"/><path class="cls-2" d="M534.3,151l3.13.44a8.63,8.63,0,0,1-2.83,4.9,8.5,8.5,0,0,1-11.23-1c-1.56-1.79-2.35-4.37-2.35-7.74s.79-6.17,2.38-8a7.59,7.59,0,0,1,6-2.75,7.32,7.32,0,0,1,5.8,2.71c1.55,1.8,2.32,4.42,2.32,7.84l0,.92H524.15a8.35,8.35,0,0,0,1.7,5.15,4.77,4.77,0,0,0,3.7,1.73C531.83,155.11,533.41,153.73,534.3,151Zm-10-5.55h10a7.28,7.28,0,0,0-1.21-3.93,4.5,4.5,0,0,0-3.72-1.89,4.59,4.59,0,0,0-3.48,1.57A6.66,6.66,0,0,0,524.33,145.4Z" transform="translate(1.48 0.36)"/><path class="cls-2" d="M204.36,230.78v-28h4.91l5.87,19.8,1.18,4.14c.28-1,.72-2.52,1.31-4.48l5.93-19.46H228v28h-3.14v-23.4l-7.21,23.4h-2.94L207.5,207v23.8Z" transform="translate(1.48 0.36)"/><path class="cls-2" d="M232.79,206.75v-3.94h3v3.94Zm0,24V210.51h3v20.27Z" transform="translate(1.48 0.36)"/><path class="cls-2" d="M240.36,230.78v-28h3v28Z" transform="translate(1.48 0.36)"/><path class="cls-2" d="M259.73,230.78v-2.56a5.81,5.81,0,0,1-2.12,2.24,5.29,5.29,0,0,1-2.79.77,6.92,6.92,0,0,1-5.48-2.77c-1.55-1.85-2.32-4.46-2.32-7.81a14.78,14.78,0,0,1,1-5.86,8,8,0,0,1,2.74-3.57,6.59,6.59,0,0,1,3.81-1.16,5.5,5.5,0,0,1,2.78.73,6.13,6.13,0,0,1,2.13,2.05v-10h3.06v28Zm-9.6-10.12q0,3.93,1.47,5.84a4.24,4.24,0,0,0,3.43,1.91,4.16,4.16,0,0,0,3.35-1.83,8.94,8.94,0,0,0,1.42-5.53q0-4.26-1.42-6.21a4.27,4.27,0,0,0-3.58-2,4,4,0,0,0-3.29,1.88Q250.13,216.64,250.13,220.66Z" transform="translate(1.48 0.36)"/><path class="cls-2" d="M276.26,221.77l3.09-.3a7.84,7.84,0,0,0,1.12,3.59,6.08,6.08,0,0,0,2.5,2.07,8.33,8.33,0,0,0,3.66.78,7,7,0,0,0,4.53-1.32,4.23,4.23,0,0,0,1.62-3.43,4,4,0,0,0-.59-2.17,4.29,4.29,0,0,0-1.77-1.51,35.37,35.37,0,0,0-5.11-1.67,18.88,18.88,0,0,1-5-1.93A6.94,6.94,0,0,1,278,213.4a6.85,6.85,0,0,1-.82-3.38,7.17,7.17,0,0,1,2.36-5.55,9.11,9.11,0,0,1,6.38-2.16,10.89,10.89,0,0,1,4.82,1,7.47,7.47,0,0,1,3.21,2.9,9,9,0,0,1,1.22,4.45l-3.14.26a5.89,5.89,0,0,0-1.76-4,6.25,6.25,0,0,0-4.25-1.32,6.75,6.75,0,0,0-4.23,1.15,3.64,3.64,0,0,0-1.46,3,3.34,3.34,0,0,0,1.06,2.64,13.47,13.47,0,0,0,4.82,1.89,32.42,32.42,0,0,1,5.13,1.63,8.07,8.07,0,0,1,3.42,2.82,7.33,7.33,0,0,1,1.15,4.16,8.15,8.15,0,0,1-1.21,4.37,7.84,7.84,0,0,1-3.3,3,11.23,11.23,0,0,1-5,1,10.27,10.27,0,0,1-7.31-2.55A9.38,9.38,0,0,1,276.26,221.77Z" transform="translate(1.48 0.36)"/><path class="cls-2" d="M311.69,230.78v-3a7.65,7.65,0,0,1-2.46,2.58,6.63,6.63,0,0,1-6.83-.2,5.11,5.11,0,0,1-2-2.69,15.66,15.66,0,0,1-.5-4.42V210.51h3v11.24a16.34,16.34,0,0,0,.34,4.19,3.29,3.29,0,0,0,1.26,1.7,3.58,3.58,0,0,0,2.08.64,4.48,4.48,0,0,0,3.58-1.66c.8-1,1.19-2.71,1.19-5.25V210.51h3.05v20.27Z" transform="translate(1.48 0.36)"/><path class="cls-2" d="M318.58,232.46l3,.49a3.46,3.46,0,0,0,1.24,2.43,4.57,4.57,0,0,0,2.86.8,5.16,5.16,0,0,0,3.17-.89,4.51,4.51,0,0,0,1.62-2.64,24.46,24.46,0,0,0,.26-4.51,6.73,6.73,0,0,1-2.22,2,5.58,5.58,0,0,1-2.73.67,6.69,6.69,0,0,1-5.33-2.52,11.69,11.69,0,0,1-2.42-7.77,14.14,14.14,0,0,1,1.06-5.7,8,8,0,0,1,2.81-3.59,7,7,0,0,1,3.9-1.14,5.9,5.9,0,0,1,2.89.72,6.92,6.92,0,0,1,2.31,2.16v-2.43h2.8V228a19.12,19.12,0,0,1-.83,6.67,6.5,6.5,0,0,1-2.69,3.15,8.41,8.41,0,0,1-4.5,1.15,7.57,7.57,0,0,1-5.35-1.74A6,6,0,0,1,318.58,232.46Zm2.51-12.18c0,2.67.47,4.61,1.42,5.84A4.28,4.28,0,0,0,326,228a4.35,4.35,0,0,0,3.5-1.8c1-1.19,1.44-3.1,1.44-5.71s-.49-4.45-1.48-5.7a4.47,4.47,0,0,0-3.61-1.86,4.16,4.16,0,0,0-3.33,1.86A9.07,9.07,0,0,0,321.09,220.28Z" transform="translate(1.48 0.36)"/><path class="cls-2" d="M337.79,232.46l3,.49a3.49,3.49,0,0,0,1.23,2.43,4.59,4.59,0,0,0,2.86.8,5.19,5.19,0,0,0,3.18-.89,4.5,4.5,0,0,0,1.61-2.64,23.28,23.28,0,0,0,.27-4.51,6.93,6.93,0,0,1-2.22,2,5.62,5.62,0,0,1-2.74.67,6.65,6.65,0,0,1-5.32-2.52,11.7,11.7,0,0,1-2.43-7.77,14.14,14.14,0,0,1,1.07-5.7,7.91,7.91,0,0,1,2.81-3.59,6.93,6.93,0,0,1,3.89-1.14,5.87,5.87,0,0,1,2.89.72,7,7,0,0,1,2.32,2.16v-2.43H353V228a19.17,19.17,0,0,1-.82,6.67,6.6,6.6,0,0,1-2.69,3.15,8.42,8.42,0,0,1-4.51,1.15,7.56,7.56,0,0,1-5.34-1.74A6,6,0,0,1,337.79,232.46Zm2.51-12.18c0,2.67.47,4.61,1.42,5.84A4.27,4.27,0,0,0,345.2,228a4.35,4.35,0,0,0,3.5-1.8c1-1.19,1.45-3.1,1.45-5.71s-.5-4.45-1.49-5.7a4.47,4.47,0,0,0-3.61-1.86,4.13,4.13,0,0,0-3.32,1.86A9,9,0,0,0,340.3,220.28Z" transform="translate(1.48 0.36)"/><path class="cls-2" d="M369.82,224.25l3.13.44a8.6,8.6,0,0,1-2.83,4.89,8.49,8.49,0,0,1-11.22-1c-1.58-1.78-2.36-4.36-2.36-7.73s.79-6.17,2.37-8a7.6,7.6,0,0,1,6-2.75,7.32,7.32,0,0,1,5.8,2.71c1.55,1.8,2.32,4.42,2.32,7.84l0,.91H359.67a8.31,8.31,0,0,0,1.7,5.15,4.75,4.75,0,0,0,3.7,1.74Q368.49,228.41,369.82,224.25Zm-10-5.55h10a7.25,7.25,0,0,0-1.21-3.93,4.61,4.61,0,0,0-7.2-.31A6.59,6.59,0,0,0,359.85,218.7Z" transform="translate(1.48 0.36)"/><path class="cls-2" d="M375.62,224.71l3-.54a4.86,4.86,0,0,0,1.45,3.2,5.46,5.46,0,0,0,6.21.14,2.88,2.88,0,0,0,1.07-2.3,2.15,2.15,0,0,0-.92-1.87,12.16,12.16,0,0,0-3.09-1.15,23.1,23.1,0,0,1-4.72-1.72,5,5,0,0,1-1.86-1.89,5.49,5.49,0,0,1-.65-2.69,5.39,5.39,0,0,1,1.79-4.21,7.1,7.1,0,0,1,4.95-1.62,8.72,8.72,0,0,1,3.51.66,5.46,5.46,0,0,1,2.31,1.8,7.39,7.39,0,0,1,1.11,3.22l-3,.46q-.41-3.31-3.89-3.32a4.86,4.86,0,0,0-2.94.73,2.26,2.26,0,0,0-1,1.87,2,2,0,0,0,.92,1.77,17.6,17.6,0,0,0,3.3,1.22,25.92,25.92,0,0,1,4.87,1.76,4.75,4.75,0,0,1,1.73,1.8,5.74,5.74,0,0,1,.61,2.71,6.06,6.06,0,0,1-2,4.7,7.84,7.84,0,0,1-5.42,1.79Q376.66,231.23,375.62,224.71Z" transform="translate(1.48 0.36)"/><path class="cls-2" d="M400.81,227.7l.41,3a9.77,9.77,0,0,1-2.26.3,4.89,4.89,0,0,1-2.55-.58,3,3,0,0,1-1.32-1.59,14.28,14.28,0,0,1-.37-4V213.19H392.5v-2.68h2.22v-5l3-2.06v7.07h3.06v2.68h-3.06V225a5.17,5.17,0,0,0,.27,2.12,1.52,1.52,0,0,0,1.46.69A8.71,8.71,0,0,0,400.81,227.7Z" transform="translate(1.48 0.36)"/><path class="cls-2" d="M403.67,206.75v-3.94h3v3.94Zm0,24V210.51h3v20.27Z" transform="translate(1.48 0.36)"/><path class="cls-2" d="M416.34,230.78l-6.81-20.27h3.21l3.85,12.14c.44,1.37.82,2.73,1.16,4.08.26-1.07.63-2.35,1.11-3.85l4-12.37H426l-6.81,20.27Z" transform="translate(1.48 0.36)"/><path class="cls-2" d="M440.85,224.25l3.12.44a8.65,8.65,0,0,1-2.82,4.89,8.5,8.5,0,0,1-11.23-1q-2.35-2.67-2.36-7.73c0-3.5.8-6.17,2.38-8a7.58,7.58,0,0,1,6-2.75,7.32,7.32,0,0,1,5.8,2.71c1.55,1.8,2.33,4.42,2.33,7.84l0,.91H430.69a8.25,8.25,0,0,0,1.71,5.15,4.72,4.72,0,0,0,3.7,1.74C438.37,228.41,440,227,440.85,224.25Zm-10-5.55h10a7.25,7.25,0,0,0-1.22-3.93,4.6,4.6,0,0,0-7.19-.31A6.59,6.59,0,0,0,430.87,218.7Z" transform="translate(1.48 0.36)"/><path class="cls-2" d="M463.59,230.78V206.11h-8.14v-3.3H475v3.3h-8.18v24.67Z" transform="translate(1.48 0.36)"/><path class="cls-2" d="M477.92,230.78v-28h3v10a7.39,7.39,0,0,1,2.42-2.09,6.43,6.43,0,0,1,3-.69,6,6,0,0,1,4.51,1.69q1.67,1.68,1.66,6.19v12.84h-3V217.94a5.68,5.68,0,0,0-1-3.78,3.49,3.49,0,0,0-2.78-1.15,4.47,4.47,0,0,0-3.36,1.47c-.92,1-1.39,2.72-1.39,5.21v11.09Z" transform="translate(1.48 0.36)"/><path class="cls-2" d="M509.36,224.25l3.13.44a8.66,8.66,0,0,1-2.83,4.89,8.5,8.5,0,0,1-11.23-1q-2.35-2.67-2.35-7.73,0-5.25,2.37-8a7.6,7.6,0,0,1,6-2.75,7.32,7.32,0,0,1,5.8,2.71c1.54,1.8,2.32,4.42,2.32,7.84l0,.91H499.2a8.37,8.37,0,0,0,1.71,5.15,4.74,4.74,0,0,0,3.7,1.74Q508,228.41,509.36,224.25Zm-10-5.55h10a7.34,7.34,0,0,0-1.21-3.93,4.61,4.61,0,0,0-7.2-.31A6.59,6.59,0,0,0,499.39,218.7Z" transform="translate(1.48 0.36)"/><path class="cls-2" d="M516.35,230.78V210.51h2.72v2.83a6.54,6.54,0,0,1,2.32-2.43,5.85,5.85,0,0,1,3.1-.85,5.5,5.5,0,0,1,3.19.9,4.9,4.9,0,0,1,1.86,2.63,7.83,7.83,0,0,1,2.46-2.65,5.65,5.65,0,0,1,3.09-.88,5.23,5.23,0,0,1,4.06,1.62q1.49,1.62,1.49,5.19v13.91h-3V218a9.73,9.73,0,0,0-.34-3.09,2.75,2.75,0,0,0-1.1-1.4,3.09,3.09,0,0,0-1.72-.5,4,4,0,0,0-3.2,1.45A6.83,6.83,0,0,0,530,219v11.79h-3V217.6a5.83,5.83,0,0,0-.83-3.56,2.81,2.81,0,0,0-2.29-1,3.91,3.91,0,0,0-3.28,1.56q-1.2,1.56-1.2,5.68v10.53Z" transform="translate(1.48 0.36)"/><path class="cls-2" d="M557.33,224.25l3.13.44a8.6,8.6,0,0,1-2.83,4.89,8.5,8.5,0,0,1-11.23-1c-1.56-1.78-2.35-4.36-2.35-7.73s.79-6.17,2.38-8a7.56,7.56,0,0,1,6-2.75,7.32,7.32,0,0,1,5.8,2.71c1.55,1.8,2.32,4.42,2.32,7.84l0,.91H547.18a8.31,8.31,0,0,0,1.7,5.15,4.75,4.75,0,0,0,3.7,1.74Q556,228.41,557.33,224.25Zm-10-5.55h10a7.25,7.25,0,0,0-1.21-3.93,4.61,4.61,0,0,0-7.2-.31A6.59,6.59,0,0,0,547.36,218.7Z" transform="translate(1.48 0.36)"/><path class="cls-2" d="M563.13,224.71l3-.54a4.86,4.86,0,0,0,1.45,3.2,5.46,5.46,0,0,0,6.21.14,2.89,2.89,0,0,0,1.08-2.3,2.15,2.15,0,0,0-.93-1.87,12,12,0,0,0-3.08-1.15,23,23,0,0,1-4.73-1.72,4.87,4.87,0,0,1-1.85-1.89,5.83,5.83,0,0,1,1.13-6.9,7.1,7.1,0,0,1,4.95-1.62,8.72,8.72,0,0,1,3.51.66,5.53,5.53,0,0,1,2.31,1.8,7.26,7.26,0,0,1,1.11,3.22l-3,.46q-.4-3.31-3.89-3.32a4.86,4.86,0,0,0-2.94.73,2.26,2.26,0,0,0-1,1.87,2,2,0,0,0,.93,1.77,17.08,17.08,0,0,0,3.29,1.22,25.92,25.92,0,0,1,4.87,1.76,4.75,4.75,0,0,1,1.73,1.8,5.74,5.74,0,0,1,.61,2.71,6,6,0,0,1-2,4.7,7.78,7.78,0,0,1-5.41,1.79Q564.17,231.23,563.13,224.71Z" transform="translate(1.48 0.36)"/></svg>