<svg xmlns="http://www.w3.org/2000/svg" viewBox="0 0 198.17 201.74"><defs><style>.cls-1{fill:#fff;}</style></defs><title>Nintendo Switch™</title><g id="Layer_2" data-name="Layer 2"><g id="NINTENDO_SWITCH_LOGO" data-name="NINTENDO SWITCH LOGO"><path class="cls-1" d="M51.31,38.18a12,12,0,1,0,12-12A12,12,0,0,0,51.31,38.18Zm30.85,108.5H68.69v3.37h5.08v12.52h3.42V150.05h5Zm-35.82,5.26,7.89,10.63h3.14V146.68H54.14v10.44l-7.82-10.44H43.12v15.89h3.22Zm34.84,48.75h6.67v-30H81.18ZM14,182.51l-.18,0c-3.66-.64-6.83-1.2-7.11-3.35a2.1,2.1,0,0,1,.55-1.68c1-1.15,3.28-1.74,6.73-1.74a25.69,25.69,0,0,1,9.18,2.07l2.13-5.19a33.62,33.62,0,0,0-11.61-2.31c-6.48,0-13.37,3.16-13.37,9,0,4.75,3.35,7.18,11.95,8.65,6.06,1,9.4,1.62,9.3,4.22-.05,1.43-1.16,3.84-8,3.84a21.21,21.21,0,0,1-10.71-2.8L0,198.34a29.4,29.4,0,0,0,13.12,3.18c9.54,0,14.58-3.31,14.58-9.56C27.7,187.5,25.46,184.53,14,182.51Zm92.57-55.23h19.59a32.64,32.64,0,0,0,32.64-32.64v-62A32.64,32.64,0,0,0,126.14,0H106.45a.83.83,0,0,0-.83.83V126.35A.93.93,0,0,0,106.55,127.28ZM130.8,57.14A12.87,12.87,0,1,1,117.93,70,12.87,12.87,0,0,1,130.8,57.14ZM61.41,192.46,55.06,170.7H49.74l-6.32,21.68L37.65,170.7H31.12l8.49,30h7.21l5.59-19.76L58,200.69H65.2l8.53-30H67.2ZM4.57,151.95l7.89,10.63h3.14V146.68H12.38v10.44L4.56,146.68H1.35v15.89H4.57Zm26.55-5.26H27.59v15.89h3.54ZM181.6,182.52h-14V170.7h-6.2v30h6.2v-12h14v12h6.21v-30H181.6Zm8.71,15.07h1.26v3.1h.75v-3.1h1.23v-.73h-3.23ZM153.6,146.68H147v15.89h6.57a8,8,0,1,0,0-15.89Zm.16,12.55h-3.47V150h3.47a4.61,4.61,0,0,1,0,9.21Zm26.76-13.09a8.48,8.48,0,1,0,8.47,8.48A8.48,8.48,0,0,0,180.52,146.15Zm0,13.43a4.95,4.95,0,1,1,4.94-4.95A4.95,4.95,0,0,1,180.52,159.58ZM91.95,0H64.13A32.64,32.64,0,0,0,31.49,32.64v62a32.64,32.64,0,0,0,32.64,32.64H91.95a.93.93,0,0,0,.93-.93V.93A.93.93,0,0,0,91.95,0ZM82.62,117H64.13A22.37,22.37,0,0,1,41.75,94.65v-62A22.37,22.37,0,0,1,64.13,10.26H82.62Zm115.17,79.79h-.69l-1,2.81-1-2.81h-1.06v3.84h.69v-2.94l1,2.91v0h.66v0l1-2.91v2.94h.69v-3.84ZM95.17,177.07h9.58v23.63h6.45V177.07h9.37V170.7H95.17Zm46.25-.68a9.62,9.62,0,0,1,8.23,4.66l4.88-4.24a16,16,0,1,0,0,17.85l-4.88-4.24a9.62,9.62,0,0,1-8.23,4.66,9.34,9.34,0,1,1,0-18.68Zm-35.27-16.76H97V155.9h8.45V153H97V149.6h9.14v-2.92H93.79v15.89h12.36Zm27.43,2.94V146.68h-3.23v10.44l-7.82-10.44h-3.21v15.89h3.22V151.95l7.89,10.63Z"/></g></g></svg>