<svg xmlns="http://www.w3.org/2000/svg" xmlns:xlink="http://www.w3.org/1999/xlink" viewBox="0 0 2048.83 853.41"><defs><style>.cls-1{fill:#fff;}.cls-2{fill:url(#linear-gradient);}.cls-3{fill:url(#linear-gradient-2);}.cls-4{fill:url(#linear-gradient-3);}.cls-5{fill:url(#linear-gradient-4);}.cls-6{fill:url(#linear-gradient-5);}.cls-7{fill:url(#linear-gradient-6);}.cls-8{fill:url(#linear-gradient-7);}.cls-9{fill:url(#linear-gradient-8);}.cls-10{fill:url(#linear-gradient-9);}.cls-11{fill:url(#linear-gradient-10);}.cls-12{fill:url(#linear-gradient-11);}.cls-13{fill:url(#linear-gradient-12);}.cls-14{fill:url(#linear-gradient-13);}.cls-15{fill:url(#linear-gradient-14);}.cls-16{fill:url(#linear-gradient-15);}.cls-17{fill:url(#linear-gradient-16);}.cls-18{fill:url(#linear-gradient-17);}.cls-19{fill:url(#linear-gradient-18);}.cls-20{fill:url(#linear-gradient-19);}.cls-21{fill:url(#linear-gradient-20);}.cls-22{fill:url(#linear-gradient-21);}.cls-23{fill:url(#linear-gradient-22);}.cls-24{fill:url(#linear-gradient-23);}.cls-25{fill:url(#linear-gradient-24);}.cls-26{fill:url(#linear-gradient-25);}.cls-27{fill:url(#linear-gradient-26);}.cls-28{fill:url(#linear-gradient-27);}.cls-29{fill:url(#linear-gradient-28);}.cls-30{fill:url(#linear-gradient-29);}.cls-31{fill:url(#linear-gradient-30);}.cls-32{fill:url(#linear-gradient-31);}.cls-33{fill:url(#linear-gradient-32);}.cls-34{fill:url(#linear-gradient-33);}.cls-35{fill:url(#linear-gradient-34);}.cls-36{fill:url(#linear-gradient-35);}.cls-37{fill:url(#linear-gradient-36);}.cls-38{fill:url(#linear-gradient-37);}.cls-39{fill:url(#linear-gradient-38);}.cls-40{fill:url(#linear-gradient-39);}.cls-41{fill:url(#linear-gradient-40);}.cls-42{fill:url(#linear-gradient-41);}.cls-43{fill:url(#linear-gradient-42);}.cls-44{fill:url(#linear-gradient-43);}.cls-45{fill:url(#linear-gradient-44);}.cls-46{fill:url(#linear-gradient-45);}.cls-47{fill:url(#linear-gradient-46);}.cls-48{fill:url(#linear-gradient-47);}.cls-49{fill:url(#linear-gradient-48);}.cls-50{fill:url(#linear-gradient-49);}.cls-51{fill:url(#linear-gradient-50);}.cls-52{fill:url(#linear-gradient-51);}.cls-53{fill:url(#linear-gradient-52);}.cls-54{fill:url(#linear-gradient-53);}.cls-55{fill:url(#linear-gradient-54);}.cls-56{fill:url(#linear-gradient-55);}.cls-57{fill:url(#linear-gradient-56);}.cls-58{fill:url(#linear-gradient-57);}.cls-59{fill:url(#linear-gradient-58);}.cls-60{fill:url(#linear-gradient-59);}.cls-61{fill:url(#linear-gradient-60);}.cls-62{fill:url(#linear-gradient-61);}.cls-63{fill:url(#linear-gradient-62);}.cls-64{fill:url(#linear-gradient-63);}</style><linearGradient id="linear-gradient" x1="1570.61" y1="192.19" x2="1570.96" y2="192.06" gradientUnits="userSpaceOnUse"><stop offset="0" stop-color="#424da1"/><stop offset="1" stop-color="#e72239"/></linearGradient><linearGradient id="linear-gradient-2" x1="548.2" y1="703.54" x2="1663.35" y2="311.1" xlink:href="#linear-gradient"/><linearGradient id="linear-gradient-3" x1="524.32" y1="641.06" x2="1642.38" y2="247.6" xlink:href="#linear-gradient"/><linearGradient id="linear-gradient-4" x1="499.61" y1="483.69" x2="1680.62" y2="68.07" xlink:href="#linear-gradient"/><linearGradient id="linear-gradient-5" x1="501.19" y1="495.2" x2="1681.07" y2="79.98" xlink:href="#linear-gradient"/><linearGradient id="linear-gradient-6" x1="510.57" y1="513.78" x2="1690.84" y2="98.43" xlink:href="#linear-gradient"/><linearGradient id="linear-gradient-7" x1="513.16" y1="524.84" x2="1695.05" y2="108.92" xlink:href="#linear-gradient"/><linearGradient id="linear-gradient-8" x1="539.5" y1="529.37" x2="1790.16" y2="89.24" xlink:href="#linear-gradient"/><linearGradient id="linear-gradient-9" x1="521.87" y1="543.63" x2="1702.34" y2="128.2" xlink:href="#linear-gradient"/><linearGradient id="linear-gradient-10" x1="523.75" y1="554.99" x2="1703.93" y2="139.66" xlink:href="#linear-gradient"/><linearGradient id="linear-gradient-11" x1="525.69" y1="566.37" x2="1705.68" y2="151.11" xlink:href="#linear-gradient"/><linearGradient id="linear-gradient-12" x1="508.75" y1="588.08" x2="1626.6" y2="194.69" xlink:href="#linear-gradient"/><linearGradient id="linear-gradient-13" x1="527.21" y1="642.53" x2="1643.67" y2="249.63" xlink:href="#linear-gradient"/><linearGradient id="linear-gradient-14" x1="534.42" y1="585.21" x2="1713.07" y2="170.42" xlink:href="#linear-gradient"/><linearGradient id="linear-gradient-15" x1="537.38" y1="596.15" x2="1718.65" y2="180.44" xlink:href="#linear-gradient"/><linearGradient id="linear-gradient-16" x1="539.73" y1="607.38" x2="1722.19" y2="191.26" xlink:href="#linear-gradient"/><linearGradient id="linear-gradient-17" x1="530.14" y1="623.07" x2="1675.54" y2="219.98" xlink:href="#linear-gradient"/><linearGradient id="linear-gradient-18" x1="530.22" y1="639.6" x2="1659.74" y2="242.1" xlink:href="#linear-gradient"/><linearGradient id="linear-gradient-19" x1="533.86" y1="650.98" x2="1663.54" y2="253.42" xlink:href="#linear-gradient"/><linearGradient id="linear-gradient-20" x1="532.67" y1="658.47" x2="1648.41" y2="265.82" xlink:href="#linear-gradient"/><linearGradient id="linear-gradient-21" x1="536.43" y1="668.62" x2="1653.07" y2="275.65" xlink:href="#linear-gradient"/><linearGradient id="linear-gradient-22" x1="547.81" y1="626.42" x2="1726.83" y2="211.5" xlink:href="#linear-gradient"/><linearGradient id="linear-gradient-23" x1="550.64" y1="637.4" x2="1732.08" y2="221.63" xlink:href="#linear-gradient"/><linearGradient id="linear-gradient-24" x1="552.45" y1="648.81" x2="1733.43" y2="233.21" xlink:href="#linear-gradient"/><linearGradient id="linear-gradient-25" x1="554.9" y1="659.97" x2="1737.5" y2="243.8" xlink:href="#linear-gradient"/><linearGradient id="linear-gradient-26" x1="539.84" y1="677.25" x2="1657.36" y2="283.97" xlink:href="#linear-gradient"/><linearGradient id="linear-gradient-27" x1="543.1" y1="688.12" x2="1658.79" y2="295.49" xlink:href="#linear-gradient"/><linearGradient id="linear-gradient-28" x1="547.12" y1="698.73" x2="1664.13" y2="305.64" xlink:href="#linear-gradient"/><linearGradient id="linear-gradient-29" x1="550.5" y1="702.44" x2="1679.08" y2="305.27" xlink:href="#linear-gradient"/><linearGradient id="linear-gradient-30" x1="546.75" y1="669.16" x2="1688.1" y2="267.5" xlink:href="#linear-gradient"/><linearGradient id="linear-gradient-31" x1="554.87" y1="681.53" x2="1708.26" y2="275.63" xlink:href="#linear-gradient"/><linearGradient id="linear-gradient-32" x1="563.58" y1="690.76" x2="1737.31" y2="277.7" xlink:href="#linear-gradient"/><linearGradient id="linear-gradient-33" x1="550.92" y1="705.89" x2="1671.76" y2="311.45" xlink:href="#linear-gradient"/><linearGradient id="linear-gradient-34" x1="551.39" y1="711.8" x2="1666.84" y2="319.26" xlink:href="#linear-gradient"/><linearGradient id="linear-gradient-35" x1="552.85" y1="716.39" x2="1667.81" y2="324.02" xlink:href="#linear-gradient"/><linearGradient id="linear-gradient-36" x1="432.35" y1="631.56" x2="1610.97" y2="216.78" xlink:href="#linear-gradient"/><linearGradient id="linear-gradient-37" x1="420.93" y1="625.36" x2="1607.57" y2="207.76" xlink:href="#linear-gradient"/><linearGradient id="linear-gradient-38" x1="422.83" y1="612.68" x2="1606.45" y2="196.14" xlink:href="#linear-gradient"/><linearGradient id="linear-gradient-39" x1="418.39" y1="602.21" x2="1604.13" y2="184.93" xlink:href="#linear-gradient"/><linearGradient id="linear-gradient-40" x1="499.14" y1="561.73" x2="1613.59" y2="169.54" xlink:href="#linear-gradient"/><linearGradient id="linear-gradient-41" x1="494.39" y1="551.41" x2="1609.72" y2="158.91" xlink:href="#linear-gradient"/><linearGradient id="linear-gradient-42" x1="469.81" y1="553.45" x2="1605.73" y2="153.7" xlink:href="#linear-gradient"/><linearGradient id="linear-gradient-43" x1="489.97" y1="539.98" x2="1605.6" y2="147.37" xlink:href="#linear-gradient"/><linearGradient id="linear-gradient-44" x1="388.16" y1="639.04" x2="1595.04" y2="214.32" xlink:href="#linear-gradient"/><linearGradient id="linear-gradient-45" x1="432.05" y1="611.57" x2="1604.31" y2="199.03" xlink:href="#linear-gradient"/><linearGradient id="linear-gradient-46" x1="421.57" y1="603.26" x2="1600.28" y2="188.45" xlink:href="#linear-gradient"/><linearGradient id="linear-gradient-47" x1="410.9" y1="594.96" x2="1596.5" y2="177.73" xlink:href="#linear-gradient"/><linearGradient id="linear-gradient-48" x1="411.86" y1="582.63" x2="1595.22" y2="166.19" xlink:href="#linear-gradient"/><linearGradient id="linear-gradient-49" x1="409.56" y1="574.88" x2="1594.12" y2="158.01" xlink:href="#linear-gradient"/><linearGradient id="linear-gradient-50" x1="496.2" y1="539.23" x2="1606.89" y2="148.36" xlink:href="#linear-gradient"/><linearGradient id="linear-gradient-51" x1="374.75" y1="609.85" x2="1583.06" y2="184.62" xlink:href="#linear-gradient"/><linearGradient id="linear-gradient-52" x1="422.54" y1="581.05" x2="1593.54" y2="168.95" xlink:href="#linear-gradient"/><linearGradient id="linear-gradient-53" x1="410.63" y1="573.15" x2="1589.11" y2="158.43" xlink:href="#linear-gradient"/><linearGradient id="linear-gradient-54" x1="500.07" y1="535.39" x2="1607.36" y2="145.71" xlink:href="#linear-gradient"/><linearGradient id="linear-gradient-55" x1="489.43" y1="613.35" x2="1627.48" y2="212.85" xlink:href="#linear-gradient"/><linearGradient id="linear-gradient-56" x1="513.56" y1="603.46" x2="1628.14" y2="211.22" xlink:href="#linear-gradient"/><linearGradient id="linear-gradient-57" x1="510.79" y1="597.31" x2="1625.91" y2="204.88" xlink:href="#linear-gradient"/><linearGradient id="linear-gradient-58" x1="501.27" y1="611.34" x2="1627.1" y2="215.15" xlink:href="#linear-gradient"/><linearGradient id="linear-gradient-59" x1="458.13" y1="619.83" x2="1619.26" y2="211.21" xlink:href="#linear-gradient"/><linearGradient id="linear-gradient-60" x1="509.55" y1="592.06" x2="1624.19" y2="199.8" xlink:href="#linear-gradient"/><linearGradient id="linear-gradient-61" x1="505.02" y1="581.65" x2="1620.35" y2="189.15" xlink:href="#linear-gradient"/><linearGradient id="linear-gradient-62" x1="499.55" y1="571.54" x2="1616.42" y2="178.49" xlink:href="#linear-gradient"/><linearGradient id="linear-gradient-63" x1="507.16" y1="586.39" x2="1622.42" y2="193.91" xlink:href="#linear-gradient"/></defs><title>NIS America, Inc.</title><g id="Layer_2" data-name="Layer 2"><g id="Layer_3" data-name="Layer 3"><path class="cls-1" d="M45.81,597.39c25.53-8.88,54,3.21,69,19.5,12.6,13.67,7.32,21.15,22.5,45,5.16,8.11,17.63,27.69,39,40.5,34.35,20.58,72.53,12.17,79.5,10.5,22.76-5.47,41.26-18.05,90-76.5,45.1-54.09,51.28-69.72,93-121.49,33.23-41.23,52.83-65.3,85.5-93s63.3-53.11,111-66c22.24-6,60.39-16.31,103.49-1.5,45.35,15.59,71.88,50.63,81,63,28.1,38.12,27.21,67,40.5,67.5,13.95.56,20-31,54-100.49,18.56-37.91,30.87-57.27,55.5-96,27.65-43.48,38.3-54.3,54-61.5,5.19-2.38,41.81-19.17,73.5,1.5,16.63,10.84,29.36,30.34,30,51,.56,18-8.32,28.67-28.5,60,0,0-8,12.38-40.5,67.5-20.15,34.14-16.51,34.73-54,109.49-27.61,55.06-36.39,68.32-51,82.5-10.76,10.44-28.4,27.17-57,36-10.82,3.34-43.62,13-78-1.5-22.93-9.64-36.07-25.88-48-40.5-8.38-10.27-7.18-11.09-37.5-60-15.45-24.93-23-36.45-37.5-40.5-10.81-3-21.61-.79-26.12.15-14.43,3-24.4,10-30.87,14.85-31.6,23.72-71,64.75-76.5,70.5-11.89,19.26-29.95,47.19-54,79.5-31.19,41.91-58.65,78.36-102,115.49-29.8,25.53-51,43.66-85.5,58.5-19.41,8.34-85.89,35.77-163.49,13.5-41.58-11.94-69.43-33.28-82.5-43.5-18.17-14.21-40.24-31.58-56.2-62.64C10.62,724.16-9.52,685,5.31,643.89,8.62,634.73,18.72,606.81,45.81,597.39Z"/><path class="cls-1" d="M1119.76,349.91c-14.72,28.11-22.69,48.19-37.5,85.5a649.8,649.8,0,0,0-30,99c-2.59,12-5.48,27.39,1.5,43.5,7.46,17.2,22,25.68,27,28.5,2.24,1.27,29.06,15.84,58.5,4.5,22.26-8.58,32.87-26.62,37.5-34.5,7.23-12.31,5.39-16,15-51,5.22-19,9.7-35.37,18-55.5,7.28-17.67,8.26-15.83,19.5-42,7.26-16.91,9.08-23,16.48-38.9,4.3-9.27,9.24-19.26,15-30.1,13.11-24.56,22.15-34.53,33-61.5,9.11-22.64,10.73-34.62,7.5-46.5-4.19-15.43-14.92-24.67-19.5-28.5-19.5-16.33-50.8-22.78-73.5-10.5-8.21,4.44-13.59,12-24,27a340.46,340.46,0,0,0-30,52.5A670.52,670.52,0,0,0,1119.76,349.91Z"/><path class="cls-1" d="M1587.73,439.9c-.35,5.19-18.34,8.83-72,13.5-62.51,5.43-93.76,8-127.49,7.5-39.29-.6-57.19-3.45-90,3-36.15,7.11-47.62,17.1-54,25.5-16.83,22.17-10.94,50.14-10.2,53.38,1.08,4.77,5.19,22.91,20.7,35.11,14.36,11.3,30.43,11.16,58.5,10.5,54.78-1.29,82.18-1.77,100.49-3,54.49-3.67,48.75-1.19,84-4.5a927.31,927.31,0,0,0,93-13.5c41.75-8.23,63.15-12.61,88.5-25.5,21.24-10.8,40.75-21.06,52.5-43.5,10.76-20.55,9.68-41.13,9-54a129.09,129.09,0,0,0-15-54c-11.77-21.87-27-34.11-40.5-45-11.38-9.19-22.59-15.63-45-28.5-10.2-5.86-25.5-14.64-45-24-49.88-23.93-70.57-24.41-70.5-31.5.14-12.8,65.67-22.15,129-36a1307,1307,0,0,0,193.49-58.5c39.87-10.46,98.79-27.81,154.49-52.5,14.36-6.36,35.26-16.21,43.5-37.5,5.44-14.06,5.35-33.1-4.5-48-8.95-13.54-22.45-18.37-34.5-22.5-26.14-8.95-49.38-6.57-64.5-4.5-40,5.49-71.86,15.57-112.49,30-60.89,21.63-56.77,23-93,34.5-23.51,7.48-50.17,14-103.49,27-53.63,13.08-57.37,13.17-93,22.5a999.36,999.36,0,0,0-100.49,33c-23.76,9.19-34.23,15.46-45,24-8.49,6.73-28.65,23.13-40.5,52.5-5.07,12.57-15.74,39-6,67.5,6.95,20.32,20.72,32.39,30,40.49,18.17,15.83,35,21.54,52.49,28.51a629.21,629.21,0,0,1,85.5,42c7.67,3.83,19.63,9.7,34.5,16.5C1579.14,433.63,1588,436.21,1587.73,439.9Z"/></g><g id="Layer_1-2" data-name="Layer 1"><path class="cls-2" d="M1571,192.14c-.1-.1-.19-.1-.27-.19-.1.09-.1.09-.1.19s0,.1.1.2S1570.89,192.24,1571,192.14Z"/><path class="cls-3" d="M1658.44,362c-36.27-27.33-92-56.58-170.44-89.4l-1.82-.72a157.21,157.21,0,0,1-21.1-9.06l-.92-.54.82-.63c12.06-8.8,33.09-18.92,58.29-28.07,4-1.46,9.41-3.28,13.18-4.56,11.79-4,24.84-7.85,39.21-11.69,10-2.56,20.75-5.13,32.15-7.57,10-2.22,20.39-4.15,31.35-6a14.21,14.21,0,0,1,2.37-.37l2-.46c8.06-1.82,16.11-3.74,24.33-5.76a20.49,20.49,0,0,0-6.59-4.93,18.61,18.61,0,0,0,10.42-12.5,16.75,16.75,0,0,0,16,12.32c2.81-.8,5.92-1.65,8.85-2.37a16.79,16.79,0,1,0-24.86-18.83,18.9,18.9,0,0,0-10.42-12.53,18.61,18.61,0,0,0,10.42-12.52,16.83,16.83,0,0,0,33.07-4.39,16.84,16.84,0,0,0-33.07-4.46,18.64,18.64,0,0,0-10.62-12.53,17.92,17.92,0,0,0,7.88-6.4c-7.88,2.1-15.64,3.94-23.4,5.94a2.78,2.78,0,0,0,.91.46,19,19,0,0,0-8.78,7.87,20,20,0,0,0-4.11-5.49c-2.09.46-4.19,1-6.3,1.46-7.31,1.19-14.36,2.64-21.4,3.94-9.88,2-19.54,4-29,6.21-15.55,3.74-30.44,7.59-44.79,11.87h-.17c-1.22.29-3.48,1-6.31,1.92-7.59,2.36-15,4.85-22.12,7.21l-4.47,1.56V161c-9,3.3-17.73,6.58-25.78,10-58.85,25.11-88.82,53.64-91.93,87.81l-.17,5.76c0,33.43,26.13,59.95,77.86,78.78,133.62,56,167.41,89,175.82,100.52l.37.64-.54.27c-11,7.87-49.53,27.24-171.72,38-84.35,7.41-163.13,6.68-164,6.68a38.25,38.25,0,0,0-.61,76.5c3.73,0,93,.72,186.07-8.4,148.59-14.64,216.57-43.86,227.73-97.8a70.24,70.24,0,0,0,1.45-13.61C1713.55,403.53,1672.06,372.29,1658.44,362Zm-20.75-162a20.5,20.5,0,0,0-6.95-7.86,18.74,18.74,0,0,0,6.95-7.76,18.74,18.74,0,0,0,8.78,7.76A19,19,0,0,0,1637.69,200Zm0-49.62a18.44,18.44,0,0,0,8.78,7.86,19,19,0,0,0-8.78,7.87,19.17,19.17,0,0,0-6.95-7.87A18.48,18.48,0,0,0,1637.69,150.37Zm-33.8,46.07a25,25,0,0,0-3.84-4.3,19,19,0,0,0,3.84-4.29,18.43,18.43,0,0,0,4.65,4.29A20.58,20.58,0,0,0,1603.89,196.44Zm0-42.4a20.36,20.36,0,0,0,4.65,4.19,23.09,23.09,0,0,0-4.65,4.31,24.49,24.49,0,0,0-3.84-4.31A20.47,20.47,0,0,0,1603.89,154ZM1570.71,192c.09.09.17.09.27.19-.1.1-.19.2-.27.2s-.1-.1-.1-.2S1570.61,192,1570.71,192Z"/><path class="cls-4" d="M1277.81,264.8a38.25,38.25,0,0,0-69.28-13.73c-99.79,149.73-130.32,285.43-131.6,291.08a38.17,38.17,0,0,0,74.57,16.36c.27-1.18,29.06-127.83,120.64-265A37.94,37.94,0,0,0,1277.81,264.8Z"/><path class="cls-5" d="M43.9,641.52a2.55,2.55,0,1,0,2.55,2.55A2.54,2.54,0,0,0,43.9,641.52Z"/><path class="cls-6" d="M78,639.23a4.9,4.9,0,1,0,4.88,4.84A4.89,4.89,0,0,0,78,639.23Z"/><path class="cls-7" d="M43.9,675.42a2.6,2.6,0,1,0,0,5.21,2.6,2.6,0,0,0,0-5.21Z"/><path class="cls-8" d="M78,673A4.95,4.95,0,1,0,82.92,678,4.92,4.92,0,0,0,78,673Z"/><path class="cls-9" d="M110.43,684.65c-1.78-2.29-3.48-4.57-5.11-6.77V678A7,7,0,0,0,110.43,684.65Z"/><path class="cls-10" d="M43.9,709.23a2.67,2.67,0,0,0-2.61,2.64,2.58,2.58,0,0,0,5.16,0A2.69,2.69,0,0,0,43.9,709.23Z"/><path class="cls-11" d="M78,706.95a5,5,0,0,0-4.9,4.92,4.89,4.89,0,0,0,9.78,0A5,5,0,0,0,78,706.95Z"/><path class="cls-12" d="M112.16,705a6.85,6.85,0,1,0,6.86,6.83A6.86,6.86,0,0,0,112.16,705Z"/><path class="cls-13" d="M146.12,720.57c-2.79-2.28-5.53-4.47-8.14-6.88A8.57,8.57,0,0,0,146.12,720.57Z"/><path class="cls-14" d="M303.49,719.18a15.4,15.4,0,1,0,24.35-18.26A263.61,263.61,0,0,1,303.49,719.18Z"/><path class="cls-15" d="M78,740.93a4.9,4.9,0,0,0-4.9,4.86,4.89,4.89,0,1,0,4.9-4.86Z"/><path class="cls-16" d="M112.16,738.94a6.85,6.85,0,1,0,6.86,6.86A6.81,6.81,0,0,0,112.16,738.94Z"/><path class="cls-17" d="M146.3,737.2a8.63,8.63,0,1,0,8.64,8.59A8.6,8.6,0,0,0,146.3,737.2Z"/><path class="cls-18" d="M180.43,756.2a10.41,10.41,0,0,0,10.42-10.41,7.18,7.18,0,0,0-.18-1.47,119,119,0,0,1-16.81-6.57,10.53,10.53,0,0,0-3.79,8A10.4,10.4,0,0,0,180.43,756.2Z"/><path class="cls-19" d="M214.61,757.65A11.75,11.75,0,0,0,226,748.44c-4,.19-8,.19-12,0a96.92,96.92,0,0,1-11.14-1.35A11.84,11.84,0,0,0,214.61,757.65Z"/><path class="cls-20" d="M248.8,758.84a13,13,0,0,0,13-13.05,15.11,15.11,0,0,0-.86-4.69,127.1,127.1,0,0,1-25,6.4A13,13,0,0,0,248.8,758.84Z"/><path class="cls-21" d="M283.38,731.27c-4,2.09-8,4.12-12,5.76a14.17,14.17,0,0,0-3,8.76,14.54,14.54,0,1,0,15-14.53Z"/><path class="cls-22" d="M317,730.43a15.4,15.4,0,1,0,15.45,15.36A15.37,15.37,0,0,0,317,730.43Z"/><path class="cls-23" d="M112.16,772.83a6.88,6.88,0,0,0-6.85,6.86,6.85,6.85,0,1,0,6.85-6.86Z"/><path class="cls-24" d="M146.3,771.1a8.59,8.59,0,1,0,8.64,8.59A8.6,8.6,0,0,0,146.3,771.1Z"/><path class="cls-25" d="M180.43,790.1a10.37,10.37,0,1,0-10.37-10.41A10.4,10.4,0,0,0,180.43,790.1Z"/><path class="cls-26" d="M214.61,791.57a11.84,11.84,0,1,0-11.83-11.88A11.85,11.85,0,0,0,214.61,791.57Z"/><path class="cls-27" d="M248.8,792.74a13.06,13.06,0,1,0-13.11-13.05A13,13,0,0,0,248.8,792.74Z"/><path class="cls-28" d="M282.88,765.18a14.52,14.52,0,1,0,14.53,14.51A14.53,14.53,0,0,0,282.88,765.18Z"/><path class="cls-29" d="M317,764.27a15.43,15.43,0,1,0,15.45,15.42A15.43,15.43,0,0,0,317,764.27Z"/><path class="cls-30" d="M351.15,763a16.73,16.73,0,0,0-16.78,16.72,16.22,16.22,0,0,0,2.43,8.59,326.09,326.09,0,0,0,27.5-19A16.86,16.86,0,0,0,351.15,763Z"/><path class="cls-31" d="M146.3,804.91a8.92,8.92,0,0,0-5.25,1.93c4.47,2.08,9.09,4.2,13.79,5.85A8.62,8.62,0,0,0,146.3,804.91Z"/><path class="cls-32" d="M180.43,803.18a10.4,10.4,0,0,0-10.37,10.41,11.11,11.11,0,0,0,1.09,4.69c5.08,1.39,10.29,2.65,15.59,3.56a10.3,10.3,0,0,0,4.11-8.24A10.41,10.41,0,0,0,180.43,803.18Z"/><path class="cls-33" d="M214.61,801.81a11.79,11.79,0,0,0-3.88,22.94c2.28.17,4.62.17,6.92.17a11.75,11.75,0,0,0-3-23.12Z"/><path class="cls-34" d="M248.8,800.54a13.07,13.07,0,0,0-13.11,13.05,12.91,12.91,0,0,0,5,10.24c6.26-.63,12.58-1.74,18.78-2.9a13,13,0,0,0-10.68-20.39Z"/><path class="cls-35" d="M282.88,799.07a14.54,14.54,0,0,0-14.54,14.51,16.15,16.15,0,0,0,.88,4.86,217.2,217.2,0,0,0,27.5-9.22A14.51,14.51,0,0,0,282.88,799.07Z"/><path class="cls-36" d="M303.45,806.3c5.39-2.38,10.74-4.95,16.08-7.87a10.35,10.35,0,0,0-2.51-.26A15.44,15.44,0,0,0,303.45,806.3Z"/><path class="cls-37" d="M1927,100.59a6.8,6.8,0,0,0-4.56,12c4-1.47,7.68-2.92,11.32-4.41v-.8A6.79,6.79,0,0,0,1927,100.59Z"/><path class="cls-38" d="M1892.86,98.74a8.63,8.63,0,1,0,0,17.27,8.63,8.63,0,0,0,0-17.27Z"/><path class="cls-39" d="M1858.68,96.92a10.47,10.47,0,1,0,10.42,10.42A10.48,10.48,0,0,0,1858.68,96.92Z"/><path class="cls-40" d="M1824.51,95.54a11.84,11.84,0,1,0,11.88,11.8A11.91,11.91,0,0,0,1824.51,95.54Z"/><path class="cls-41" d="M1790.33,94.26a13.07,13.07,0,1,0,13.05,13.08A13.06,13.06,0,0,0,1790.33,94.26Z"/><path class="cls-42" d="M1756.24,92.81a14.53,14.53,0,1,0,14.52,14.53A14.5,14.5,0,0,0,1756.24,92.81Z"/><path class="cls-43" d="M1722,122.78a15.42,15.42,0,0,0,12.8-24c-9.41,2.93-18.73,5.76-28.23,8.5v.1A15.42,15.42,0,0,0,1722,122.78Z"/><path class="cls-44" d="M1688,124.15A16.68,16.68,0,0,0,1704.7,108c-10.15,2.93-20.39,5.78-30.82,8.59A17.25,17.25,0,0,0,1688,124.15Z"/><path class="cls-45" d="M1995.23,70.88a2.61,2.61,0,0,0,0,5.22,2.61,2.61,0,1,0,0-5.22Z"/><path class="cls-46" d="M1961,68.6a4.89,4.89,0,0,0,0,9.77,4.88,4.88,0,1,0,0-9.77Z"/><path class="cls-47" d="M1927,66.58a6.9,6.9,0,1,0,0,13.8,6.9,6.9,0,0,0,0-13.8Z"/><path class="cls-48" d="M1892.86,64.84a8.81,8.81,0,0,0-8.77,8.67,8.72,8.72,0,0,0,8.77,8.5,8.55,8.55,0,0,0,8.58-8.5A8.65,8.65,0,0,0,1892.86,64.84Z"/><path class="cls-49" d="M1858.68,63.11a10.37,10.37,0,1,0,10.42,10.41A10.42,10.42,0,0,0,1858.68,63.11Z"/><path class="cls-50" d="M1812.81,72.34c0,.37-.19.72-.19,1.18a11.88,11.88,0,0,0,23.77,0,12,12,0,0,0-3.66-8.49Z"/><path class="cls-51" d="M1803.11,75.81c-7,2.46-14.07,4.92-21.19,7.48a12.87,12.87,0,0,0,21.19-7.48Z"/><path class="cls-52" d="M1995.23,42.09a2.64,2.64,0,0,0,2.72-2.47,2.58,2.58,0,0,0-2.72-2.55,2.45,2.45,0,0,0-2.57,2.55A2.49,2.49,0,0,0,1995.23,42.09Z"/><path class="cls-53" d="M1961,34.67a4.9,4.9,0,0,0-4.75,4.95,4.85,4.85,0,1,0,4.75-4.95Z"/><path class="cls-54" d="M1927,32.65a7,7,0,0,0-6.94,7,6.85,6.85,0,1,0,6.94-7Z"/><path class="cls-55" d="M1886.1,44.82a8.23,8.23,0,0,0,6.76,3.38,8.58,8.58,0,0,0,8.58-8.59,1.27,1.27,0,0,0-.18-.83C1896.33,40.71,1891.41,42.8,1886.1,44.82Z"/><path class="cls-56" d="M1682.11,193.52a21,21,0,0,1,3.66-1A11.18,11.18,0,0,0,1682.11,193.52Z"/><path class="cls-57" d="M1756.24,160.72a14.49,14.49,0,0,0-14.53,14.51v1.29c9.14-2.84,18.27-5.68,27-8.49A14.2,14.2,0,0,0,1756.24,160.72Z"/><path class="cls-58" d="M1722,159.78a15.48,15.48,0,0,0-15.42,15.46,15.16,15.16,0,0,0,4.11,10.34c8.94-2.48,17.82-5,26.49-7.67a12.37,12.37,0,0,0,.27-2.66A15.48,15.48,0,0,0,1722,159.78Z"/><path class="cls-59" d="M1848.26,140.69c6-2.19,12.07-4.39,17.93-6.58a10.89,10.89,0,0,0-7.5-3.18A10.35,10.35,0,0,0,1848.26,140.69Z"/><path class="cls-60" d="M1824.51,129.45a12,12,0,0,0-11.89,11.87,11.6,11.6,0,0,0,5.86,10c5.64-2,11.51-4,17.18-6a11.69,11.69,0,0,0,.72-4A11.92,11.92,0,0,0,1824.51,129.45Z"/><path class="cls-61" d="M1790.33,128.26a13.07,13.07,0,1,0,13.05,13.06A13,13,0,0,0,1790.33,128.26Z"/><path class="cls-62" d="M1756.24,126.8a14.53,14.53,0,1,0,14.52,14.53A14.51,14.51,0,0,0,1756.24,126.8Z"/><path class="cls-63" d="M1722,156.78a15.46,15.46,0,1,0-15.42-15.46A15.48,15.48,0,0,0,1722,156.78Z"/><path class="cls-64" d="M1078.57,254.47a38.21,38.21,0,0,0-53.37,8.06c-45.4,61.6-69.65,102.36-104,174.35l-.68,1.39c-34.13,79.59-57.85,94.14-62.24,96.14l-.32.18-.32-.18c-1.64-1.16-7.41-6.22-14-20.3l-1.74-3.27C785.84,417,765,386.9,698.11,378.77l-5.25-.29c-43.08.74-97.89,12.8-177.21,96.44h-.14c-.41.54-1.27,1.46-2.32,2.63h0l-5.63,6.06c-1.51,1.62-2.64,2.92-2.64,2.92v.06c-.56.46-1.06,1.1-1.52,1.56-8.45,9.39-17.22,19.74-26.26,30.8-4.77,5.92-9.6,12-14.53,18.45-3.75,4.87-7.59,9.79-11.43,15l-1.24,1.85-.28.27c-5.93,9.21-11.88,18.1-17.77,26.77-2.19,3.2-4.39,6.31-6.67,9.41-7.55,10.79-15.08,20.95-22.59,30.62h0a17.85,17.85,0,0,0,6,5.68s-5.3,3.12-7.21,7.66a23.88,23.88,0,0,0-4.94-5.57l-.19.19c-7.94,10-15.91,19.38-23.75,28.14a19.46,19.46,0,0,0,5.43,3.67,18.49,18.49,0,0,0-10.62,12.51,16.37,16.37,0,0,0-3.64-6.67q-12,12.62-23.81,23.51a16.72,16.72,0,0,0,27.45-8.07A18.23,18.23,0,0,0,378,694.89a18.87,18.87,0,0,0-10.62,12.61,16.69,16.69,0,0,0-16.21-12.43,16.82,16.82,0,1,0,16.21,21.21A18.42,18.42,0,0,0,378,728.79a18.94,18.94,0,0,0-10.62,12.62,16.81,16.81,0,1,0,0,8.76,18.49,18.49,0,0,0,7.37,10.78q13.15-10.8,26.28-23.4c3.51-3.36,6.93-6.83,10.4-10.38q10.49-10.62,21-22.41c3.76-4.23,7.47-8.48,11.17-12.79,8.22-9.79,16.44-20.1,24.71-30.8.09-.09.09-.18.14-.29,6.16-8,12.33-16.43,18.51-25.13q11.45-16.15,22.93-33.7a3,3,0,0,1,.19-.29.89.89,0,0,1,.2-.27c.3-.56.63-1,.94-1.57h0c1.62-2.27,4.57-6.28,7.28-10C620.21,456.63,671.8,455.35,691.55,455c25.4,3.19,31.88,6.59,84.2,94.23,26.82,54.83,63.52,62.33,83.08,62.06,48.39-.83,90.21-46,131.47-141.85,32.25-67.62,53.92-103.9,96.41-161.57a38.18,38.18,0,0,0-8.13-53.38ZM401.42,736.66a19,19,0,0,0-8.68-7.87,18.71,18.71,0,0,0,8.68-7.76,19.87,19.87,0,0,0,6.93,7.76A21.45,21.45,0,0,0,401.42,736.66Zm-8.68-41.77a18.24,18.24,0,0,0,8.68-7.78,20.09,20.09,0,0,0,6.93,7.78,21,21,0,0,0-6.93,7.87A19.42,19.42,0,0,0,392.74,694.89Zm8.68-26a18.08,18.08,0,0,0-8.68-7.77,18.55,18.55,0,0,0,8.68-7.87,21.18,21.18,0,0,0,6.93,7.87A19.21,19.21,0,0,0,401.42,668.85ZM435.22,589a21.81,21.81,0,0,0,3.85,4.2,27.32,27.32,0,0,0-3.85,4.21,21.3,21.3,0,0,0-4.63-4.21A20.05,20.05,0,0,0,435.22,589Zm0,110.22a22,22,0,0,0-4.63-4.3,18.12,18.12,0,0,0,4.63-4.2,19.55,19.55,0,0,0,3.85,4.2A29.21,29.21,0,0,0,435.22,699.19Zm0-33.92a17.82,17.82,0,0,0-4.63-4.19,22.24,22.24,0,0,0,4.63-4.2,28.48,28.48,0,0,0,3.85,4.2A18.91,18.91,0,0,0,435.22,665.27Zm0-34a23,23,0,0,0-4.69-4.21,18.46,18.46,0,0,0,4.69-4.2,21.87,21.87,0,0,0,3.85,4.2A27.87,27.87,0,0,0,435.22,631.28Z"/><path class="cls-1" d="M705.55,781.34h-73l-10.06,21.29H556.74l77.87-130.06h70.46l78.27,130.06H716ZM692,753.28,669.23,706.4l-22.79,46.88Z"/><path class="cls-1" d="M800.29,708.34h53.83v13.51a78.69,78.69,0,0,1,23.63-12.15c7.95-2.49,17.54-3.67,28.84-3.67,12,0,21.6,1.38,28.61,4a41.64,41.64,0,0,1,17.31,11.8c9.08-6,17.33-10.24,24.81-12.54s16.63-3.27,27.61-3.27c16.14,0,28.69,3,37.83,9,8.95,6,13.53,15.44,13.53,28.26v59.29H998.46v-54c0-4.31-1.32-7.61-3.87-9.61a21.85,21.85,0,0,0-14.5-4.95c-6.76,0-12.25,1.59-16.39,4.66s-6.23,8.07-6.23,14.92v49H899.35V750.54c0-4.2-.3-7-1.13-8.48a13,13,0,0,0-6.39-5.76A26.21,26.21,0,0,0,881,734.08c-6.73,0-12.2,1.67-16.54,4.77s-6.41,8.3-6.41,15.53v48.25h-57.8Z"/><path class="cls-1" d="M1258.24,764.53H1142.36c1,5.74,3.48,10,7.5,12.88,5.66,4.13,13,6.12,21.92,6.12a50.62,50.62,0,0,0,16.27-2.63,40.75,40.75,0,0,0,10.15-6.07l56.75,3.41a74.15,74.15,0,0,1-31.45,20.47c-12.33,4.12-30,6.11-53,6.11q-30,0-47.17-5.21c-11.49-3.56-21-9.13-28.52-16.89s-11.32-16.66-11.32-27.07c0-14.81,7.68-26.79,22.66-35.92,15.18-9.06,36-13.71,62.6-13.71,21.66,0,38.65,2.11,51.1,6.12s22,10.06,28.51,17.82,9.86,17.92,9.86,30.45Zm-58.76-17.44c-1.19-7.05-4.11-12.08-9.05-15.1s-11.25-4.57-19.19-4.57c-9.23,0-16.63,2.18-22.12,6.85-3.45,2.84-5.75,7.13-6.58,12.81Z"/><path class="cls-1" d="M1285.21,708.34h54.2v15.33c5.12-6.66,10.52-11.34,16.07-13.79S1367.91,706,1376,706c8.58,0,17.9,1.75,28.05,5.12l-17.9,25.7c-6.86-1.76-12.17-2.78-16.18-2.78-7.48,0-13.52,2-17.63,6-5.94,5.49-9,15.73-9,31v31.62h-58.12Z"/><path class="cls-1" d="M1415.81,672.57h57.86v24.49h-57.86Zm0,35.77h57.86v94.29h-57.86Z"/><path class="cls-1" d="M1623.08,765.81l54.94,3.93a45.86,45.86,0,0,1-14.92,18.54c-6.94,5.3-15.81,9.32-26.5,12.26s-24.4,4.29-40.94,4.29q-24.14,0-40-2.74c-10.6-1.92-19.75-4.83-27.42-9.06s-13.71-9-18.09-14.7-6.48-13.15-6.48-22.47c0-9.69,2.63-17.85,7.94-24.32a55.78,55.78,0,0,1,15.9-12.7,88.3,88.3,0,0,1,20.76-8.42q16.85-4.39,43.31-4.39c24.58,0,43.41,2.76,56.3,8.23s21.94,13.62,27.14,24.13l-54.48,4.39a17.93,17.93,0,0,0-9.31-9c-4.39-1.93-10.41-2.95-18.09-2.95-9.51,0-17.18,2.12-23.13,6.42s-8.86,10.78-8.86,19.56c0,7.77,2.93,13.62,8.77,17.75s13.35,5.91,22.49,5.91c7.58,0,13.88-1.1,19.09-3.57A23.43,23.43,0,0,0,1623.08,765.81Z"/><path class="cls-1" d="M1756.87,738.56,1701.76,735c2.1-6,5-10.77,9-14.27s9.6-6.39,16.91-9a103.88,103.88,0,0,1,21.94-4.19,276.52,276.52,0,0,1,30.17-1.56,388.63,388.63,0,0,1,41.76,1.82q15.77,1.93,26.32,7.69a30,30,0,0,1,11.7,11.25c2.74,4.92,4.21,9.59,4.21,14.05v41.79c0,4.36.37,7.85,1.45,10.38a36,36,0,0,0,5.86,9.61h-54.29a21.16,21.16,0,0,1-6.29-11.34,90.85,90.85,0,0,1-22.59,9.72c-10.24,2.63-22.11,3.82-35.63,3.82-18,0-31.81-2.55-41-7.77-9.42-5.3-14-11.7-14-19.36,0-7.23,3.28-13.08,10.12-17.82,6.68-4.56,19.12-8.14,37.13-10.35,21.64-2.71,35.91-4.55,42.3-5.75s13.25-2.55,20.48-4.37c0-4.38-1.55-7.48-4.39-9.33s-8.23-2.64-15.53-2.64c-9.51,0-16.73.93-21.49,2.81C1762.18,731.71,1759.24,734.54,1756.87,738.56Zm50.46,19.09c-8,1.93-16.27,3.49-24.85,4.86-11.81,2-19.2,3.84-22.32,5.84-3.29,2-4.86,4.23-4.86,6.77,0,2.84,1.57,5.22,4.77,7.15s8,2.71,14,2.71a53.35,53.35,0,0,0,18-3c5.5-1.93,9.42-4.41,11.8-7.23a18.09,18.09,0,0,0,3.48-11.14Z"/></g></g></svg>