<svg id="PS_VitaR_F_A_neg" data-name="PS VitaR_F_A_neg" xmlns="http://www.w3.org/2000/svg" viewBox="0 0 89 68.67"><defs><style>.cls-1{fill:#fff;}</style></defs><title>ps-white</title><path class="cls-1" d="M238,271.67v64.07l14.5,4.6V286.59c0-2.51,1.12-4.2,2.93-3.61,2.37,0.66,2.83,3,2.83,5.49v21.46c9,4.37,16.15,0,16.15-11.52,0-11.82-4.16-17.06-16.44-21.28A174.9,174.9,0,0,0,238,271.67Z" transform="translate(-204.67 -271.66)"/><path class="cls-1" d="M255.2,331l23.32-8.31c2.64-.95,3.05-2.29.9-3a15.83,15.83,0,0,0-8.68.45l-15.54,5.48v-8.71l0.89-.3a53.38,53.38,0,0,1,10.8-2.29,46.16,46.16,0,0,1,20.11,2.4c6.84,2.16,7.61,5.35,5.87,7.54s-6,3.76-6,3.76L255.2,339.36V331Z" transform="translate(-204.67 -271.66)"/><path class="cls-1" d="M211.35,330.09c-7-2-8.19-6.09-5-8.46a34.42,34.42,0,0,1,8-3.84l20.78-7.38v8.42l-15,5.36c-2.64.95-3,2.29-.9,3a15.74,15.74,0,0,0,8.69-.45l7.17-2.6v7.54l-1.43.23a47,47,0,0,1-22.36-1.8" transform="translate(-204.67 -271.66)"/><path class="cls-1" d="M285.44,336.82a2.79,2.79,0,0,1,.82-2,2.82,2.82,0,0,1,4.81,2,2.82,2.82,0,0,1-2.82,2.82A2.82,2.82,0,0,1,285.44,336.82Zm2.82,3.4a3.4,3.4,0,0,0,0-6.79,3.4,3.4,0,0,0-2.4,5.8,3.36,3.36,0,0,0,2.4,1" transform="translate(-204.67 -271.66)"/><path class="cls-1" d="M289.18,336a0.5,0.5,0,0,1-.17.43,0.92,0.92,0,0,1-.5.12h-1v-1.07h1.11a0.82,0.82,0,0,1,.36.07A0.45,0.45,0,0,1,289.18,336Zm0.75,2.43a0.25,0.25,0,0,1-.12-0.17c0-.06,0-0.15,0-0.29l0-.48a0.84,0.84,0,0,0-.13-0.5,0.76,0.76,0,0,0-.22-0.19,1,1,0,0,0,.28-0.28,1,1,0,0,0,.15-0.58,0.93,0.93,0,0,0-.56-0.93,1.66,1.66,0,0,0-.72-0.13h-1.76v3.78h0.66v-1.55h1a1.17,1.17,0,0,1,.41.06,0.43,0.43,0,0,1,.21.41l0,0.6c0,0.14,0,.24,0,0.29a0.53,0.53,0,0,0,0,.14l0,0H290v-0.22l0,0" transform="translate(-204.67 -271.66)"/></svg>