<svg xmlns="http://www.w3.org/2000/svg" viewBox="0 0 197.9 40.28"><defs><style>.cls-1{fill:#fff;}</style></defs><title>PS4</title><g id="Layer_2" data-name="Layer 2"><g id="レイヤー_1" data-name="レイヤー 1"><path class="cls-1" d="M125.5,0H99.21C91.59,0,87.85,4.7,87.85,10.82V29.41c0,3.78-1.8,6.51-5.59,6.51H57.56a.28.28,0,0,0-.28.28v3.73a.29.29,0,0,0,.28.28H85.12c7.63,0,11.36-4.69,11.36-10.8V10.81c0-3.79,1.8-6.52,5.58-6.52H125.5a.28.28,0,0,0,.28-.28V.28A.28.28,0,0,0,125.5,0"/><path class="cls-1" d="M47.84,0H.28A.28.28,0,0,0,0,.29V4a.28.28,0,0,0,.28.28H45c3.79,0,5.58,2.73,5.58,6.52S48.78,17.33,45,17.33H9.62C4.14,17.33,0,21.94,0,28.06V39.94a.28.28,0,0,0,.28.28H8.35a.28.28,0,0,0,.28-.28V28.06c0-3.79,2.18-6.43,5.32-6.43H47.84c7.63,0,11.36-4.68,11.36-10.8S55.47,0,47.84,0"/><path class="cls-1" d="M187.9,31.62h-8.06a.29.29,0,0,1-.29-.28V4.28c0-4.16-2.87-5.52-6.92-3L124.17,31c-1.9,1.17-2.54,2.49-2.08,3.47s1.44,1.43,3.54,1.43h45a.29.29,0,0,1,.25.21v3.8a.29.29,0,0,0,.28.29h8.09a.29.29,0,0,0,.28-.29V36.21a.29.29,0,0,1,.28-.29h8.07a.29.29,0,0,0,.29-.28V31.9a.29.29,0,0,0-.29-.28m-17-.3a.29.29,0,0,1-.28.29H132.89c-.31,0-.47-.08-.51-.19s.05-.31.28-.46L170.21,7.84c.26-.16.7-.13.7.38Z"/><path class="cls-1" d="M192,37.06a2.65,2.65,0,0,1,.78-1.89,2.68,2.68,0,0,1,4.57,1.89,2.68,2.68,0,0,1-2.67,2.68A2.68,2.68,0,0,1,192,37.06Zm2.68,3.23a3.23,3.23,0,0,0,0-6.45,3.23,3.23,0,0,0-2.28,5.51,3.19,3.19,0,0,0,2.28.95"/><path class="cls-1" d="M195.56,36.25a.48.48,0,0,1-.16.41.87.87,0,0,1-.47.11h-1v-1H195a.78.78,0,0,1,.35.06A.43.43,0,0,1,195.56,36.25Zm.71,2.31a.24.24,0,0,1-.11-.16c0-.06,0-.15,0-.27l0-.46a.79.79,0,0,0-.13-.48.71.71,0,0,0-.21-.18.92.92,0,0,0,.27-.26.94.94,0,0,0,.14-.55.88.88,0,0,0-.53-.88,1.59,1.59,0,0,0-.68-.12h-1.67v3.59h.62V37.31h1a1.11,1.11,0,0,1,.39.06.4.4,0,0,1,.2.39l0,.57c0,.13,0,.23,0,.28a.52.52,0,0,0,0,.14l0,0h.69v-.21l0,0"/></g></g></svg>